<?xml version="1.0" encoding="utf-8"?>
<!-- Generator: Adobe Illustrator 24.0.0, SVG Export Plug-In . SVG Version: 6.00 Build 0)  -->
<svg version="1.1" id="Capa_1" xmlns="http://www.w3.org/2000/svg" xmlns:xlink="http://www.w3.org/1999/xlink" x="0px" y="0px"
	 viewBox="0 0 265 257" style="enable-background:new 0 0 265 257;" xml:space="preserve">
<style type="text/css">
	.st0{fill:none;stroke:#E84939;stroke-miterlimit:10;}
	.st1{fill:#E84939;}
</style>
<path class="st0" d="M139.86,41.51c14.83,3.29,25.38,8.53,31.66,15.71c6.27,7.18,9.41,15.89,9.41,26.12v18.22
	c0,5.51,1.52,9.82,4.56,12.93c3.04,3.11,7.68,4.67,13.92,4.67v20.38c-6.24,0-10.88,1.54-13.92,4.62c-3.04,3.08-4.56,7.44-4.56,13.06
	v18.22c0,10.23-3.14,18.93-9.41,26.08c-6.27,7.15-16.83,12.37-31.66,15.67l-7.19-15.8c5.55-1.74,9.43-4.82,11.64-9.25
	c2.21-4.43,3.31-10,3.31-16.7v-18.22c0-6.23,1.75-11.75,5.25-16.56c3.5-4.82,8.78-8.57,15.86-11.27
	c-7.07-2.81-12.36-6.63-15.86-11.45c-3.5-4.82-5.25-10.28-5.25-16.38V83.34c0-6.7-1.1-12.27-3.31-16.7s-6.08-7.51-11.64-9.25
	L139.86,41.51z"/>
<path class="st1" d="M131.83,223.26H77.08V35.45h54.74v22.39h-25.59l1.94,142.94h23.65V223.26z"/>
</svg>
